<svg xmlns="http://www.w3.org/2000/svg" width="40" height="40" xmlns:v="https://vecta.io/nano"><g transform="matrix(.99648 0 0 .967268 -30.369843 -38.69073)"><g stroke="#000"><g stroke="none"><rect width="5.6" height="9.333" x="44.586" y="-50.186" ry=".02" transform="matrix(0 1 -1 0 -1.495 0)" paint-order="normal"/><rect width="5.6" height="9.334" x="43.091" y="40.853" ry=".02" paint-order="normal"/><rect width="5.6" height="9.334" x="48.691" y="50.187" ry=".02" paint-order="normal"/></g><rect width="8.974" height="8.975" x="48.871" y="50.366" ry="3.614" stroke-width=".359"/><rect width="9.347" height="9.348" x="39.165" y="40.659" ry="3.954" stroke-width=".36"/><path d="M42.505 40.73h12a3.26 3.26 0 0 1 2.922 1.796A3.27 3.27 0 0 1 57.775 44v12.001c0 1.811-1.459 3.27-3.27 3.27h-12c-1.811 0-3.27-1.459-3.27-3.27V44c0-1.811 1.459-3.27 3.27-3.27z" fill="#fefefe" fill-opacity="0" stroke-width="1.46" paint-order="normal" stroke-dashoffset="4.6"/><rect width="5.6" height="9.333" x="50.187" y="-59.52" ry=".02" transform="matrix(0 1 -1 0 -1.495 0)" paint-order="normal" stroke="none"/></g><text xml:space="preserve" x="34.996" y="80.716" transform="scale(1.022844 .9776662)" font-size="12" font-family="sans-serif" letter-spacing="1" fill="#000"><tspan x="34.996" y="80.716" rotate="0 0 0" font-weight="normal">Play</tspan></text></g></svg>