<svg xmlns="http://www.w3.org/2000/svg" width="40" height="40" xmlns:v="https://vecta.io/nano"><g transform="matrix(1.020448 0 0 .955844 -1.024003 -10.606022)"><text xml:space="preserve" x="1.023" y="51.283" transform="scale(1.0160192 .98423337)" font-size="12.062" font-family="sans-serif" letter-spacing="1.005" fill="#000"><tspan x="1.023" y="51.283" font-weight="normal">Today</tspan></text><path d="M27.03 13.918c0-2.258-2.218-2.822-3.969-2.822v.339c1.051 0 1.868.339 1.868 1.129a1.236 1.195 0 0 1-1.401 1.129 15.128 14.63 0 0 1-3.852-.903 15.498 14.988 0 0 0-4.086-.903 3.818 3.692 0 0 0-3.969 3.613 2.706 2.617 0 0 0 1.751 2.484l.117-.226a1.23 1.19 0 0 1-.7-1.129 1.478 1.429 0 0 1 1.634-1.242 17.249 16.682 0 0 1 4.319 1.016 32.988 31.903 0 0 0 4.319.903v3.5l-1.751 1.468v.113l1.751 1.468v4.855a5.391 5.214 0 0 1-2.918.677 5.754 5.565 0 0 1-4.553-1.806l4.786-2.258V17.42l-5.837 2.484a7.804 7.547 0 0 1 3.035-3.274l-.117-.226a8.722 8.435 0 0 0-6.654 7.79 8.195 7.925 0 0 0 8.172 7.903 7.594 7.344 0 0 0 7.705-7.338h-.233a7.819 7.561 0 0 1-3.035 3.5V23.63l1.868-1.468v-.113l-1.751-1.468v-3.387a3.336 3.227 0 0 0 3.502-3.274zM16.873 26.337l-1.401.677a6.926 6.698 0 0 1-1.284-4.29 8.296 8.023 0 0 1 .35-2.371l2.452-1.016z"/></g></svg>